<svg width="213" height="48" viewBox="0 0 213 48" fill="none" xmlns="http://www.w3.org/2000/svg">
<path d="M13.4703 21.3925L21.6945 14.0133L29.9186 21.3925L34.6914 17.0998L21.6945 5.41022L8.69751 17.0998L13.4703 21.3925Z" fill="#F3BA2F"/>
<path d="M5.33692 20.1235L0.553589 24.4257L5.33692 28.7279L10.1203 24.4257L5.33692 20.1235Z" fill="#F3BA2F"/>
<path d="M13.4703 27.459L21.6945 34.8559L29.9186 27.459L34.6914 31.7517L21.6945 43.4412L8.69751 31.7694V31.7517L13.4703 27.459Z" fill="#F3BA2F"/>
<path d="M38.0593 20.1354L33.276 24.4376L38.0593 28.7397L42.8427 24.4376L38.0593 20.1354Z" fill="#F3BA2F"/>
<path d="M26.5461 24.4257L21.6944 20.0621L18.105 23.2905L17.6908 23.663L16.8428 24.4257L21.6944 28.7893L26.5461 24.4257Z" fill="#F3BA2F"/>
<path d="M50.2917 14.6342H60.6853C63.2689 14.6342 65.2214 15.2373 66.5428 16.4257C67.5684 17.3481 68.0811 18.4834 68.0811 19.8492V19.9024C68.0811 20.4701 68.0022 20.9845 67.8445 21.4279C67.6867 21.8714 67.4697 22.2617 67.2134 22.6164C66.957 22.9712 66.6414 23.2905 66.2864 23.5566C65.9314 23.8226 65.5567 24.0532 65.1622 24.2483C66.4639 24.6918 67.4895 25.2949 68.2192 26.0577C68.9686 26.8204 69.3434 27.867 69.3434 29.2151V29.2683C69.3434 30.1907 69.1461 30.9889 68.7517 31.6807C68.3572 32.3725 67.7853 32.9401 67.0556 33.4013C66.3259 33.8625 65.4384 34.1996 64.3931 34.4302C63.3675 34.6608 62.2039 34.7672 60.9614 34.7672H50.3114V14.6342H50.2917ZM59.64 22.7761C60.7247 22.7761 61.5925 22.6164 62.2434 22.2794C62.8745 21.9424 63.2097 21.3925 63.2097 20.6475V20.5942C63.2097 19.9202 62.9336 19.4058 62.3814 19.051C61.8292 18.6962 61.0206 18.5189 59.9753 18.5189H55.1039V22.7761H59.64ZM60.9614 30.9002C62.0461 30.9002 62.9139 30.7228 63.5253 30.3681C64.1367 30.0133 64.4522 29.4634 64.4522 28.7184V28.6652C64.4522 27.9911 64.1564 27.459 63.5845 27.0687C63.0125 26.6785 62.0856 26.4834 60.8036 26.4834H55.1039V30.918L60.9614 30.9002Z" fill="#F3BA2F"/>
<path d="M75.5164 14.6342H80.4469V34.8027H75.5164V14.6342Z" fill="#F3BA2F"/>
<path d="M87.9216 14.6342H92.4775L102.989 27.051V14.6342H107.861V34.8027H103.66L92.793 21.9778V34.8027H87.9216V14.6342V14.6342Z" fill="#F3BA2F"/>
<path d="M122.791 14.4745H127.346L136.951 34.7849H131.784L129.733 30.2616H120.246L118.195 34.7849H113.166L122.791 14.4745ZM127.978 26.3592L124.999 19.8137L122.021 26.3592H127.978Z" fill="#F3BA2F"/>
<path d="M142.276 14.6342H146.832L157.344 27.051V14.6342H162.215V34.8027H158.014L147.148 21.9778V34.8027H142.276V14.6342Z" fill="#F3BA2F"/>
<path d="M179.965 35.1397C178.328 35.1397 176.79 34.8736 175.39 34.3415C173.99 33.8093 172.767 33.0643 171.741 32.1419C170.716 31.2018 169.907 30.102 169.335 28.8426C168.763 27.5832 168.467 26.2173 168.467 24.7805V24.7273C168.467 23.2905 168.763 21.9424 169.335 20.6829C169.907 19.4235 170.716 18.3237 171.741 17.3659C172.767 16.408 173.99 15.663 175.429 15.1131C176.869 14.5632 178.447 14.2971 180.163 14.2971C181.208 14.2971 182.155 14.3681 183.022 14.5277C183.89 14.6874 184.679 14.9002 185.369 15.1663C186.079 15.4324 186.73 15.7694 187.322 16.1419C187.913 16.5322 188.466 16.9401 188.978 17.4013L185.843 20.6652C184.975 19.9557 184.068 19.4058 183.16 18.9978C182.253 18.5898 181.228 18.3947 180.103 18.3947C179.157 18.3947 178.289 18.5543 177.5 18.8914C176.691 19.2106 176.001 19.6718 175.429 20.2395C174.857 20.8071 174.404 21.4812 174.088 22.2439C173.773 23.0067 173.615 23.8226 173.615 24.6741V24.7273C173.615 25.5965 173.773 26.4124 174.088 27.1752C174.404 27.9379 174.857 28.612 175.41 29.1973C175.981 29.765 176.652 30.2262 177.461 30.5632C178.269 30.9002 179.137 31.0599 180.103 31.0599C181.385 31.0599 182.47 30.847 183.358 30.4213C184.245 29.9956 185.133 29.4279 186 28.7007L189.136 31.5565C188.564 32.1064 187.953 32.6208 187.341 33.0466C186.73 33.49 186.04 33.8625 185.31 34.1818C184.58 34.5011 183.772 34.7317 182.884 34.9091C182.036 35.0687 181.05 35.1397 179.965 35.1397Z" fill="#F3BA2F"/>
<path d="M194.974 14.6342H211.856V18.5898H199.845V22.6874H210.416V26.6075H199.845V30.847H212.014V34.8027H194.974V14.6342Z" fill="#F3BA2F"/>
</svg>
