<svg width="213" height="48" viewBox="0 0 213 48" fill="none" xmlns="http://www.w3.org/2000/svg">
<g clip-path="url(#clip0_61490_3)">
<path d="M10.3466 22.8526C10.3466 22.5846 10.4016 22.3192 10.5083 22.0717C10.6149 21.8242 10.7713 21.5995 10.9682 21.4105C11.1652 21.2214 11.399 21.0718 11.6561 20.9701C11.9133 20.8684 12.1887 20.8167 12.4666 20.818L15.9813 20.829C16.5418 20.829 17.0792 21.0437 17.4755 21.4259C17.8718 21.808 18.0944 22.3263 18.0944 22.8668V35.6844C18.4903 35.5713 18.9969 35.4506 19.5544 35.324C19.9406 35.2364 20.2848 35.0255 20.5312 34.7256C20.7776 34.4256 20.9117 34.0542 20.9118 33.6716V17.7734C20.9118 17.2329 21.1344 16.7145 21.5307 16.3323C21.9269 15.9501 22.4644 15.7353 23.0248 15.7352H26.5503C27.1107 15.7353 27.6482 15.9501 28.0444 16.3323C28.4407 16.7145 28.6633 17.2329 28.6633 17.7734V32.5295C28.6633 32.5295 29.5453 32.1853 30.4038 31.8356C30.7229 31.7054 30.9952 31.4876 31.1867 31.2092C31.3782 30.9308 31.4804 30.6042 31.4807 30.2702V12.6788C31.4807 12.1384 31.7032 11.6201 32.0994 11.238C32.4956 10.8558 33.033 10.6411 33.5933 10.641H37.115C37.6751 10.6415 38.212 10.8565 38.6079 11.2386C39.0037 11.6207 39.226 12.1387 39.226 12.6788V27.1647C42.2793 25.0308 45.3736 22.4641 47.8292 19.3779C48.1854 18.93 48.4212 18.4039 48.5154 17.8467C48.6096 17.2895 48.5593 16.7185 48.369 16.1846C47.2323 13.0309 45.4255 10.1408 43.0641 7.6991C40.7027 5.25745 37.8388 3.31808 34.6556 2.00509C31.4724 0.692099 28.04 0.0343988 24.5781 0.0740823C21.1162 0.113766 17.7011 0.849957 14.5511 2.23555C11.4012 3.62113 8.58588 5.62561 6.28534 8.1207C3.9848 10.6158 2.2497 13.5465 1.19107 16.7254C0.132433 19.9043 -0.226418 23.2613 0.137475 26.5816C0.501369 29.9019 1.57999 33.1124 3.30433 36.0076C3.60474 36.5071 4.04673 36.9135 4.57835 37.1791C5.10998 37.4447 5.70915 37.5584 6.30549 37.507C6.97169 37.4504 7.80116 37.3705 8.78732 37.2589C9.21653 37.2118 9.61278 37.0141 9.90061 36.7035C10.1884 36.3929 10.3478 35.991 10.3482 35.5744V22.8526" fill="white"/>
<path d="M10.2715 43.4086C13.9836 46.0129 18.3705 47.5762 22.9468 47.9254C27.523 48.2745 32.1102 47.396 36.2009 45.3871C40.2915 43.3781 43.7262 40.317 46.1248 36.5424C48.5234 32.7678 49.7925 28.4268 49.7916 23.9998C49.7916 23.4459 49.765 22.9008 49.7268 22.3572C40.6351 35.434 23.8481 41.5473 10.2715 43.4086" fill="#FFCD1E"/>
<path opacity="0.8" d="M63.6102 40.1168H60.1275L59.5121 41.802H57.6785L60.8782 33.5181H62.8595L66.0469 41.802H64.2133L63.6102 40.1168ZM63.1426 38.8469L61.8627 35.3102L60.5828 38.8469H63.1426ZM74.9692 35.144C75.515 35.1365 76.0521 35.2763 76.5199 35.5475C76.9895 35.8274 77.3638 36.2338 77.5967 36.7165C77.8668 37.2794 77.9994 37.8945 77.9843 38.5146C77.9994 39.1346 77.8668 39.7497 77.5967 40.3126C77.3638 40.7953 76.9895 41.2017 76.5199 41.4816C76.0521 41.7528 75.515 41.8926 74.9692 41.8851C74.4483 41.8993 73.9352 41.7599 73.4986 41.4856C73.1001 41.2299 72.7962 40.8586 72.631 40.4253V44.9352H70.8957V35.2271H72.631V36.5919C72.7949 36.159 73.0991 35.7886 73.4986 35.5357C73.9369 35.2657 74.4494 35.1292 74.9692 35.144ZM74.4277 36.6038C74.186 36.5965 73.9453 36.6385 73.7216 36.7271C73.4978 36.8158 73.296 36.949 73.1294 37.1181C72.774 37.4999 72.5903 38.0022 72.6187 38.5146C72.6053 38.7664 72.6436 39.0183 72.7312 39.2559C72.8188 39.4934 72.9541 39.712 73.1294 39.8992C73.296 40.0683 73.4978 40.2015 73.7216 40.2901C73.9453 40.3788 74.186 40.4208 74.4277 40.4135C74.6698 40.4235 74.9114 40.3837 75.1363 40.2967C75.3612 40.2098 75.5644 40.0776 75.7322 39.9091C76.0787 39.524 76.2554 39.0235 76.2245 38.5146C76.2546 38.0039 76.0781 37.5019 75.7322 37.1141C75.5653 36.944 75.3625 36.8104 75.1374 36.7224C74.9124 36.6343 74.6704 36.5939 74.4277 36.6038V36.6038ZM81.5656 36.4851C81.8085 36.077 82.1559 35.7357 82.5747 35.4941C82.9989 35.2513 83.4844 35.126 83.9777 35.1321V36.9242H83.4731C82.2014 36.9242 81.5656 37.4939 81.5656 38.6332V41.802H79.8303V35.2271H81.5656V36.4851ZM88.7034 35.144C89.3256 35.1343 89.9407 35.2729 90.494 35.5475C91.0189 35.8125 91.4528 36.2185 91.7431 36.7165C92.057 37.2665 92.2141 37.8869 92.1985 38.5146C92.2147 39.1404 92.0575 39.759 91.7431 40.3067C91.4504 40.8029 91.0171 41.2084 90.494 41.4757C89.9419 41.754 89.3263 41.8947 88.7034 41.8851C88.0804 41.8947 87.4649 41.754 86.9128 41.4757C86.3897 41.2084 85.9564 40.8029 85.6637 40.3067C85.3493 39.759 85.1921 39.1404 85.2083 38.5146C85.1926 37.8869 85.3497 37.2665 85.6637 36.7165C85.954 36.2185 86.3879 35.8125 86.9128 35.5475C87.4661 35.2729 88.0812 35.1343 88.7034 35.144ZM88.7034 36.5919C88.4741 36.5878 88.2465 36.6295 88.0347 36.7142C87.8229 36.799 87.6316 36.925 87.4727 37.0845C87.2943 37.2785 87.1577 37.5049 87.0711 37.7505C86.9845 37.9961 86.9495 38.2558 86.9682 38.5146C86.9497 38.773 86.9849 39.0324 87.0715 39.2776C87.1581 39.5228 87.2945 39.7489 87.4727 39.9427C87.6316 40.1021 87.8229 40.2282 88.0347 40.3129C88.2465 40.3977 88.4741 40.4393 88.7034 40.4352C88.9326 40.4393 89.1603 40.3977 89.3721 40.3129C89.5838 40.2282 89.7752 40.1021 89.934 39.9427C90.1122 39.7489 90.2486 39.5228 90.3353 39.2776C90.4219 39.0324 90.457 38.773 90.4386 38.5146C90.4573 38.2558 90.4223 37.9961 90.3357 37.7505C90.249 37.5049 90.1125 37.2785 89.934 37.0845C89.7752 36.925 89.5838 36.799 89.3721 36.7142C89.1603 36.6295 88.9326 36.5878 88.7034 36.5919V36.5919ZM96.715 35.144C97.2348 35.1292 97.7473 35.2657 98.1856 35.5357C98.5863 35.7903 98.8941 36.1597 99.0655 36.5919V33.0196H100.788V41.802H99.0655V40.4253C98.8922 40.8582 98.5841 41.2286 98.1836 41.4856C97.7475 41.7595 97.2352 41.8989 96.715 41.8851C96.1692 41.8926 95.6321 41.7528 95.1643 41.4816C94.6947 41.2017 94.3204 40.7953 94.0875 40.3126C93.8174 39.7497 93.6848 39.1346 93.6999 38.5146C93.6848 37.8945 93.8174 37.2794 94.0875 36.7165C94.3204 36.2338 94.6947 35.8274 95.1643 35.5475C95.6321 35.2763 96.1692 35.1365 96.715 35.144V35.144ZM97.2565 36.6038C97.0138 36.5939 96.7718 36.6343 96.5468 36.7224C96.3217 36.8104 96.1189 36.944 95.952 37.1141C95.6061 37.5019 95.4296 38.0039 95.4597 38.5146C95.4288 39.0235 95.6055 39.524 95.952 39.9091C96.1198 40.0776 96.323 40.2098 96.5479 40.2967C96.7728 40.3837 97.0144 40.4235 97.2565 40.4135C97.498 40.4203 97.7384 40.3778 97.9618 40.2888C98.1852 40.1999 98.3865 40.0664 98.5528 39.8972C98.728 39.7101 98.8633 39.4915 98.9509 39.2539C99.0386 39.0163 99.0768 38.7644 99.0635 38.5126C99.0907 38.0016 98.9071 37.5009 98.5528 37.1201C98.3865 36.9509 98.1852 36.8174 97.9618 36.7284C97.7384 36.6395 97.498 36.597 97.2565 36.6038V36.6038ZM109.502 35.2271V41.802H107.766V40.4728C107.596 40.9043 107.282 41.2693 106.874 41.5113C106.442 41.7654 105.944 41.8951 105.438 41.8851C105.087 41.9003 104.736 41.8412 104.411 41.7121C104.086 41.5829 103.794 41.3868 103.555 41.1374C103.056 40.5515 102.806 39.8053 102.854 39.0486V35.2271H104.577V38.8587C104.548 39.3011 104.698 39.737 104.995 40.0752C105.141 40.2215 105.317 40.336 105.512 40.4111C105.708 40.4862 105.917 40.52 106.127 40.5104C106.349 40.5204 106.571 40.4843 106.777 40.4044C106.983 40.3246 107.168 40.2028 107.321 40.0475C107.639 39.6752 107.798 39.1997 107.764 38.7183V35.2291L109.502 35.2271ZM114.756 35.144C115.55 35.1171 116.328 35.3608 116.953 35.8324C117.548 36.3047 117.94 36.9727 118.055 37.7075H116.221C116.162 37.3828 115.982 37.0899 115.716 36.8827C115.43 36.6735 115.078 36.5666 114.72 36.5801C114.502 36.576 114.286 36.618 114.087 36.7031C113.889 36.7882 113.712 36.9143 113.569 37.0726C113.234 37.4808 113.069 37.9952 113.107 38.5146C113.068 39.0337 113.232 39.5481 113.567 39.9565C113.71 40.1151 113.887 40.2413 114.086 40.3265C114.286 40.4116 114.502 40.4534 114.72 40.4491C115.078 40.4626 115.43 40.3556 115.716 40.1464C115.982 39.9393 116.162 39.6463 116.221 39.3216H118.055C117.94 40.0564 117.548 40.7244 116.953 41.1968C116.328 41.6683 115.55 41.9121 114.756 41.8851C114.139 41.8962 113.529 41.7553 112.984 41.4757C112.473 41.2078 112.053 40.8014 111.778 40.3067C111.48 39.7541 111.331 39.1375 111.348 38.5146C111.332 37.8898 111.48 37.2714 111.778 36.7165C112.051 36.2201 112.471 35.8131 112.984 35.5475C113.531 35.2717 114.14 35.1329 114.756 35.144V35.144ZM123.543 40.366V41.802H122.633C121.999 41.8435 121.373 41.6527 120.879 41.268C120.473 40.9119 120.27 40.3185 120.27 39.4878V36.6394H119.322V35.2271H120.27V33.6011H122.005V35.2271H123.531V36.6394H122.005V39.5115C121.979 39.7492 122.05 39.9874 122.202 40.1761C122.389 40.3206 122.628 40.3887 122.866 40.366H123.543ZM131.85 35.144C132.472 35.1343 133.088 35.2729 133.641 35.5475C134.166 35.8125 134.6 36.2185 134.89 36.7165C135.204 37.2665 135.361 37.8869 135.345 38.5146C135.362 39.1404 135.204 39.759 134.89 40.3067C134.597 40.8029 134.164 41.2084 133.641 41.4757C133.089 41.754 132.473 41.8947 131.85 41.8851C131.227 41.8951 130.61 41.7543 130.058 41.4757C129.535 41.2081 129.103 40.8026 128.811 40.3067C128.496 39.759 128.339 39.1404 128.355 38.5146C128.34 37.8869 128.497 37.2665 128.811 36.7165C129.1 36.2188 129.534 35.8128 130.058 35.5475C130.612 35.2726 131.227 35.134 131.85 35.144ZM131.85 36.5919C131.621 36.5878 131.393 36.6295 131.182 36.7142C130.97 36.799 130.779 36.925 130.62 37.0845C130.441 37.2785 130.305 37.5049 130.218 37.7505C130.131 37.9961 130.096 38.2558 130.115 38.5146C130.097 38.773 130.132 39.0324 130.218 39.2776C130.305 39.5228 130.441 39.7489 130.62 39.9427C130.779 40.1021 130.97 40.2282 131.182 40.3129C131.393 40.3977 131.621 40.4393 131.85 40.4352C132.08 40.4393 132.307 40.3977 132.519 40.3129C132.731 40.2282 132.922 40.1021 133.081 39.9427C133.259 39.7489 133.396 39.5228 133.482 39.2776C133.569 39.0324 133.604 38.773 133.586 38.5146C133.604 38.2558 133.569 37.9961 133.483 37.7505C133.396 37.5049 133.259 37.2785 133.081 37.0845C132.922 36.925 132.731 36.799 132.519 36.7142C132.307 36.6295 132.08 36.5878 131.85 36.5919V36.5919ZM140.563 34.0877C140.191 34.0248 139.808 34.1012 139.493 34.3014C139.377 34.4241 139.29 34.569 139.237 34.7265C139.184 34.884 139.166 35.0506 139.185 35.2152V35.2271H140.563V36.6394H139.185V41.802H137.45V36.6394H136.576V35.2271H137.45V35.0728C137.428 34.741 137.478 34.4084 137.598 34.0966C137.718 33.7848 137.904 33.5008 138.145 33.2629C138.721 32.8021 139.46 32.5745 140.206 32.628C140.362 32.628 140.481 32.6319 140.563 32.6398V34.0877ZM147.553 35.0253V36.7818H150.495V38.3128H147.553V40.1761H150.864V41.802H145.449V33.4113H150.864V35.0253H147.553ZM156.562 40.0574V41.802H155.614C154.936 41.8424 154.267 41.6371 153.738 41.2264C153.29 40.8427 153.067 40.2078 153.067 39.3216V36.8886H152.144V35.1796H153.067V33.5537H155.171V35.1796H156.55V36.8886H155.171V39.3572C155.149 39.553 155.208 39.7493 155.335 39.9031C155.495 40.0211 155.695 40.0762 155.895 40.0574H156.562ZM162.715 35.1084C163.067 35.0931 163.418 35.1533 163.742 35.2847C164.067 35.416 164.357 35.6152 164.592 35.868C165.085 36.4565 165.334 37.2011 165.289 37.9568V41.802H163.185V38.1941C163.208 37.8156 163.078 37.4432 162.822 37.1557C162.698 37.0306 162.547 36.9326 162.381 36.8681C162.214 36.8036 162.035 36.7742 161.856 36.7818C161.667 36.773 161.479 36.8035 161.304 36.8711C161.129 36.9386 160.971 37.0418 160.841 37.1735C160.572 37.4852 160.437 37.8846 160.465 38.2891V41.802H158.361V33.0196H160.465V36.3902C160.656 36.0008 160.962 35.6746 161.345 35.4526C161.76 35.2169 162.234 35.0977 162.715 35.1084V35.1084ZM173.816 38.3128C173.814 38.4963 173.793 38.6791 173.754 38.8587H168.992C168.975 39.2522 169.116 39.6368 169.385 39.9328C169.632 40.1535 169.96 40.2709 170.296 40.2592C170.573 40.2695 170.846 40.1901 171.071 40.0337C171.272 39.8903 171.415 39.685 171.478 39.4522H173.705C173.619 39.9103 173.416 40.3405 173.114 40.7042C172.805 41.0767 172.408 41.3735 171.957 41.5706C171.467 41.7857 170.933 41.8938 170.395 41.8871C169.771 41.8986 169.155 41.7577 168.604 41.4776C168.085 41.2065 167.66 40.7955 167.379 40.2948C167.074 39.74 166.921 39.1188 166.936 38.4908C166.92 37.8615 167.07 37.2385 167.373 36.6809C167.653 36.1818 168.079 35.7731 168.598 35.506C169.152 35.2263 169.769 35.0855 170.395 35.0965C171.019 35.0836 171.637 35.2224 172.191 35.5001C172.696 35.758 173.113 36.1517 173.391 36.6335C173.682 37.1482 173.828 37.727 173.816 38.3128V38.3128ZM171.687 38.0042C171.705 37.8253 171.682 37.6448 171.619 37.4755C171.556 37.3062 171.455 37.1524 171.324 37.0251C171.069 36.8058 170.736 36.689 170.395 36.6987C170.042 36.6871 169.699 36.806 169.435 37.031C169.164 37.2881 169.009 37.6378 169.004 38.0042H171.687ZM177.631 36.4258C177.884 36.0311 178.232 35.7013 178.646 35.4644C179.053 35.229 179.519 35.1059 179.994 35.1084V37.2803H179.391C178.93 37.253 178.474 37.3741 178.092 37.6245C177.927 37.7701 177.798 37.9512 177.718 38.1531C177.638 38.3551 177.608 38.5724 177.631 38.7875V41.802H175.526V35.1796H177.631V36.4258ZM183.993 35.0965C184.744 35.0595 185.484 35.2826 186.079 35.7255C186.602 36.1478 186.949 36.7378 187.058 37.3871H185.089C185.042 37.137 184.904 36.9115 184.699 36.7521C184.482 36.5928 184.214 36.511 183.942 36.5207C183.749 36.5076 183.558 36.5601 183.401 36.6691C183.338 36.721 183.289 36.786 183.257 36.859C183.225 36.9321 183.211 37.0112 183.216 37.0904C183.216 37.1917 183.249 37.2904 183.31 37.3732C183.37 37.456 183.456 37.5189 183.554 37.5532C183.898 37.6913 184.255 37.7947 184.621 37.8618C185.059 37.9559 185.491 38.0768 185.913 38.2238C186.253 38.3486 186.553 38.5549 186.787 38.8231C187.047 39.1392 187.178 39.5359 187.156 39.9387C187.162 40.2991 187.05 40.6522 186.836 40.9475C186.602 41.2562 186.282 41.4948 185.913 41.6359C185.46 41.8114 184.974 41.8962 184.486 41.8851C183.696 41.9234 182.915 41.7153 182.258 41.2917C181.978 41.0897 181.743 40.8353 181.568 40.5437C181.392 40.252 181.28 39.9292 181.237 39.5946H183.267C183.276 39.7232 183.315 39.8484 183.38 39.9611C183.445 40.0739 183.534 40.1716 183.643 40.2473C183.892 40.4066 184.187 40.4855 184.486 40.4728C184.68 40.4863 184.874 40.4291 185.027 40.3126C185.088 40.2597 185.136 40.1945 185.168 40.1217C185.2 40.0489 185.215 39.9703 185.212 39.8913C185.216 39.7853 185.185 39.6808 185.125 39.5925C185.064 39.5041 184.976 39.4363 184.873 39.3987C184.517 39.2607 184.148 39.1548 183.772 39.0823C183.345 39.0015 182.926 38.8904 182.517 38.75C182.187 38.6306 181.895 38.4326 181.667 38.1743C181.415 37.8667 181.288 37.4803 181.31 37.0884C181.303 36.8119 181.362 36.5375 181.484 36.2871C181.606 36.0368 181.786 35.8173 182.012 35.6464C182.586 35.2474 183.287 35.053 183.993 35.0965V35.0965ZM192.042 35.0965C192.848 35.0706 193.637 35.3208 194.269 35.8027C194.88 36.2939 195.283 36.9844 195.402 37.7431H193.174C193.123 37.4826 192.98 37.2474 192.768 37.0785C192.546 36.9149 192.272 36.831 191.993 36.8412C191.817 36.8381 191.644 36.8745 191.485 36.9477C191.327 37.0208 191.189 37.1286 191.082 37.2625C190.82 37.6196 190.694 38.0527 190.725 38.4889C190.694 38.9257 190.82 39.3596 191.082 39.7172C191.189 39.8514 191.327 39.9596 191.485 40.0331C191.643 40.1066 191.817 40.1434 191.993 40.1405C192.272 40.1507 192.546 40.0668 192.768 39.9031C192.98 39.7342 193.123 39.499 193.174 39.2385H195.402C195.283 39.9966 194.88 40.6863 194.269 41.177C193.637 41.6596 192.848 41.9105 192.042 41.8851C191.419 41.8966 190.803 41.7557 190.251 41.4757C189.733 41.2051 189.307 40.7947 189.027 40.2948C188.721 39.74 188.569 39.1188 188.584 38.4908C188.567 37.8615 188.718 37.2385 189.021 36.6809C189.3 36.1818 189.726 35.7731 190.245 35.506C190.799 35.2263 191.417 35.0855 192.042 35.0965ZM199.721 35.0965C200.197 35.0838 200.667 35.2033 201.075 35.4407C201.446 35.6636 201.738 35.9908 201.912 36.3783V35.1796H204.004V41.802H201.912V40.6034C201.738 40.9909 201.446 41.318 201.075 41.5409C200.667 41.7784 200.197 41.8978 199.721 41.8851C199.184 41.893 198.656 41.7508 198.201 41.4757C197.74 41.1867 197.373 40.7772 197.143 40.2948C196.873 39.7297 196.741 39.1127 196.755 38.4908C196.739 37.8669 196.872 37.2477 197.143 36.6809C197.374 36.201 197.741 35.7937 198.201 35.506C198.656 35.2309 199.184 35.0886 199.721 35.0965V35.0965ZM200.398 36.8768C200.195 36.8687 199.993 36.9027 199.805 36.9764C199.617 37.0501 199.448 37.1618 199.309 37.304C199.018 37.6334 198.87 38.0587 198.897 38.4908C198.87 38.9229 199.018 39.3483 199.309 39.6776C199.448 39.8199 199.617 39.9316 199.805 40.0053C199.993 40.079 200.195 40.113 200.398 40.1049C200.602 40.1111 200.804 40.0752 200.992 39.9994C201.18 39.9237 201.349 39.8099 201.487 39.6658C201.782 39.3423 201.934 38.9208 201.912 38.4908C201.936 38.0587 201.784 37.6346 201.487 37.3099C201.348 37.1674 201.179 37.055 200.991 36.9803C200.803 36.9057 200.601 36.8703 200.398 36.8768V36.8768ZM210.428 35.1084C210.779 35.0931 211.13 35.1533 211.455 35.2847C211.779 35.416 212.07 35.6152 212.305 35.868C212.798 36.4565 213.047 37.2011 213.002 37.9568V41.802H210.898V38.1941C210.921 37.8156 210.791 37.4432 210.535 37.1557C210.41 37.0306 210.26 36.9326 210.093 36.8681C209.927 36.8036 209.748 36.7742 209.568 36.7818C209.38 36.773 209.192 36.8035 209.017 36.8711C208.841 36.9386 208.683 37.0418 208.553 37.1735C208.284 37.4852 208.15 37.8846 208.178 38.2891V41.802H206.071V35.1796H208.176V36.3902C208.367 36.0008 208.673 35.6746 209.056 35.4526C209.471 35.2166 209.946 35.0974 210.428 35.1084V35.1084Z" fill="white"/>
<path d="M70.3928 15.6098C71.5832 15.8167 72.6572 16.4281 73.4203 17.333C74.1763 18.229 74.5791 19.3541 74.5574 20.509C74.5943 21.2604 74.4555 22.0102 74.1513 22.7029C73.8471 23.3957 73.3853 24.0136 72.8 24.5109C71.6284 25.4888 69.9301 25.9778 67.7051 25.9778H58.7557V5.86839H67.5279C69.6337 5.86839 71.2532 6.31463 72.3865 7.20712C73.5198 8.09961 74.0859 9.35236 74.0848 10.9654C74.1337 12.0748 73.7726 13.1649 73.0658 14.0416C72.3846 14.8411 71.4422 15.394 70.3928 15.6098V15.6098ZM62.9203 14.2995H66.6697C67.5202 14.3577 68.3643 14.1202 69.049 13.6302C69.3256 13.3892 69.5423 13.0912 69.6829 12.7584C69.8235 12.4255 69.8845 12.0663 69.8612 11.7075C69.8839 11.3478 69.8242 10.9876 69.6864 10.6526C69.5486 10.3176 69.336 10.0159 69.0637 9.76906C68.5321 9.31333 67.7149 9.08546 66.6123 9.08546H62.9203V14.2995ZM66.8781 22.7022C67.783 22.7596 68.6805 22.513 69.4182 22.0044C69.7192 21.7542 69.9559 21.44 70.1097 21.0866C70.2634 20.7332 70.33 20.3502 70.3042 19.9678C70.3275 19.5799 70.2582 19.1921 70.1018 18.8341C69.9453 18.4761 69.7058 18.1575 69.4018 17.9027C68.6658 17.3772 67.7608 17.1199 66.8469 17.1764H62.9203V22.7022H66.8781ZM83.1228 9.99852C85.1115 9.99852 86.7065 10.4827 87.9076 11.4512C89.119 12.4366 89.9169 13.8136 90.1523 15.3249H86.2552C86.1284 14.6176 85.7529 13.9738 85.1919 13.502C84.5841 13.0275 83.817 12.7843 83.0358 12.8184C82.4415 12.7827 81.8538 12.9546 81.3802 13.3026C81.185 13.4634 81.0304 13.665 80.9281 13.892C80.8257 14.119 80.7783 14.3655 80.7895 14.6129C80.7817 14.8114 80.8202 15.0091 80.9019 15.1914C80.9837 15.3738 81.1067 15.5362 81.262 15.6668C81.6086 15.9495 82.0103 16.1625 82.4435 16.2934C82.916 16.4453 83.5954 16.6257 84.4814 16.8346C85.511 17.041 86.523 17.3219 87.5089 17.6748C88.2895 17.9705 88.9806 18.4504 89.5189 19.0705C90.1135 19.8034 90.4126 20.7192 90.3607 21.6483C90.3767 22.2807 90.2361 22.9077 89.9508 23.4774C89.6654 24.047 89.2435 24.5429 88.7198 24.9239C87.627 25.7584 86.1551 26.1756 84.3042 26.1756C82.1776 26.1756 80.4744 25.7157 79.1945 24.7957C78.5507 24.3231 78.0123 23.7302 77.6114 23.0524C77.2105 22.3746 76.9553 21.6258 76.8612 20.8508H80.8485C80.8832 21.2116 80.9956 21.5614 81.1788 21.8778C81.3619 22.1942 81.6116 22.4701 81.9118 22.688C82.6105 23.1602 83.4519 23.3956 84.3042 23.3573C84.8917 23.3965 85.4726 23.2182 85.9287 22.8589C86.1136 22.6947 86.2595 22.4938 86.3564 22.2701C86.4533 22.0464 86.4988 21.8051 86.4899 21.5629C86.4973 21.3547 86.4576 21.1474 86.3734 20.9555C86.2893 20.7637 86.1627 20.5918 86.0025 20.452C85.6518 20.153 85.2389 19.9297 84.7916 19.7969C84.3091 19.645 83.6254 19.4646 82.7405 19.2557C81.7334 19.0491 80.7417 18.7779 79.7721 18.4439C79.0159 18.1698 78.3449 17.7139 77.8227 17.1194C77.2451 16.4069 76.9564 15.5158 77.0105 14.6129C76.9934 13.9737 77.1313 13.3396 77.4134 12.761C77.6954 12.1824 78.1137 11.6753 78.635 11.2803C79.7169 10.4258 81.2128 9.99852 83.1228 9.99852V9.99852ZM100.815 9.99852C102.719 9.93385 104.586 10.5188 106.087 11.6506C107.514 12.7842 108.456 14.3874 108.73 16.151H104.328C104.185 15.3723 103.755 14.6698 103.117 14.1729C102.431 13.671 101.585 13.4142 100.724 13.4466C100.203 13.4369 99.6847 13.5377 99.2076 13.7419C98.7304 13.9462 98.3055 14.2489 97.9629 14.6287C97.2245 15.4167 96.8553 16.5703 96.8553 18.0894C96.8553 19.6086 97.2245 20.7622 97.9629 21.5502C98.3055 21.93 98.7304 22.2327 99.2076 22.437C99.6847 22.6412 100.203 22.742 100.724 22.7323C101.585 22.7646 102.431 22.5079 103.117 22.0059C103.755 21.5091 104.185 20.8066 104.328 20.0279H108.729C108.454 21.7915 107.513 23.3946 106.085 24.5283C104.584 25.658 102.718 26.2413 100.815 26.1756C99.3336 26.2027 97.8697 25.8651 96.5616 25.1945C95.3336 24.5516 94.3275 23.5763 93.6671 22.3889C92.9504 21.0628 92.5947 19.5828 92.6333 18.0879C92.5959 16.5885 92.9515 15.1042 93.6671 13.7726C94.3218 12.5811 95.3294 11.6045 96.5616 10.967C97.8725 10.3049 99.3352 9.97186 100.815 9.99852ZM126.009 20.4821C126.017 21.4793 125.741 22.4596 125.211 23.3162C124.644 24.2116 123.825 24.9328 122.848 25.3955C121.662 25.9471 120.355 26.2147 119.038 26.1756C117.681 26.1981 116.334 25.9508 115.081 25.4493C113.973 25.0052 113.01 24.2821 112.291 23.3557C111.584 22.4244 111.169 21.3173 111.095 20.1656H115.525C115.602 20.9398 115.964 21.662 116.544 22.2022C116.856 22.4789 117.221 22.6931 117.619 22.8325C118.017 22.9718 118.44 23.0335 118.863 23.0139C119.225 23.0373 119.588 22.9901 119.93 22.8751C120.273 22.7601 120.588 22.5796 120.856 22.3446C121.088 22.1181 121.269 21.8484 121.388 21.552C121.507 21.2557 121.563 20.939 121.551 20.6213C121.572 20.0542 121.372 19.5 120.989 19.069C120.596 18.6469 120.112 18.3118 119.572 18.0863C119.001 17.8394 118.213 17.5546 117.209 17.2318C116.115 16.8949 115.049 16.4808 114.019 15.9927C113.177 15.5718 112.452 14.9611 111.907 14.2125C111.29 13.3117 110.984 12.2451 111.036 11.1663C111.002 10.3862 111.159 9.60937 111.495 8.89906C111.831 8.18875 112.337 7.56511 112.97 7.07895C114.26 6.08202 115.968 5.58356 118.095 5.58356C120.3 5.58356 122.058 6.09626 123.367 7.12167C124.01 7.62115 124.54 8.2429 124.923 8.94825C125.307 9.6536 125.535 10.4275 125.595 11.2217H121.106C121.01 10.5421 120.678 9.91417 120.162 9.4415C119.585 8.95325 118.832 8.70271 118.065 8.74365C117.392 8.71312 116.73 8.92076 116.205 9.32757C115.961 9.54058 115.771 9.80374 115.648 10.0974C115.525 10.3912 115.473 10.7078 115.494 11.0239C115.475 11.5623 115.671 12.0872 116.04 12.4908C116.43 12.8977 116.903 13.2226 117.429 13.445C118.176 13.7597 118.94 14.0354 119.718 14.2711C120.83 14.6372 121.92 15.0651 122.981 15.5528C123.839 15.9691 124.576 16.5861 125.123 17.3473C125.752 18.2753 126.062 19.3711 126.009 20.4789V20.4821ZM136.435 9.99852C138.339 9.93385 140.206 10.5188 141.707 11.6506C143.134 12.7842 144.076 14.3874 144.351 16.151H139.95C139.807 15.3723 139.377 14.6698 138.739 14.1729C138.053 13.671 137.207 13.4142 136.346 13.4466C135.824 13.4369 135.307 13.5377 134.829 13.7419C134.352 13.9462 133.927 14.2489 133.585 14.6287C132.846 15.4167 132.477 16.5703 132.477 18.0894C132.477 19.6086 132.846 20.7622 133.585 21.5502C133.927 21.93 134.352 22.2327 134.829 22.437C135.307 22.6412 135.824 22.742 136.346 22.7323C137.207 22.7646 138.053 22.5079 138.739 22.0059C139.377 21.5091 139.807 20.8066 139.95 20.0279H144.351C144.075 21.7903 143.134 23.3923 141.707 24.5252C140.206 25.6563 138.339 26.2407 136.435 26.1756C134.954 26.2027 133.49 25.8651 132.182 25.1945C130.954 24.5516 129.948 23.5763 129.287 22.3889C128.571 21.0628 128.215 19.5828 128.254 18.0879C128.216 16.5885 128.572 15.1042 129.287 13.7726C129.942 12.5811 130.95 11.6045 132.182 10.967C133.493 10.3049 134.955 9.97186 136.435 9.99852ZM153.713 9.99852C154.966 9.9644 156.2 10.2917 157.258 10.9385C158.223 11.542 158.959 12.4317 159.355 13.4735V10.1979H163.49V25.9778H159.355V22.6737C158.957 23.7181 158.222 24.6117 157.258 25.223C156.203 25.8781 154.967 26.2101 153.713 26.1756C152.404 26.1936 151.115 25.8581 149.992 25.2072C148.865 24.5354 147.966 23.5601 147.407 22.4015C146.759 21.0507 146.441 19.5744 146.477 18.0863C146.441 16.5982 146.759 15.1219 147.407 13.771C147.966 12.6125 148.865 11.6371 149.992 10.9654C151.115 10.315 152.404 9.9801 153.713 9.99852V9.99852ZM155.013 13.502C154.43 13.4785 153.85 13.5758 153.309 13.7873C152.769 13.9989 152.283 14.3198 151.882 14.7284C151.095 15.546 150.701 16.6668 150.701 18.091C150.701 19.5152 151.095 20.6308 151.882 21.4378C152.285 21.8423 152.773 22.1595 153.312 22.3682C153.852 22.5769 154.432 22.6724 155.013 22.6484C155.594 22.6656 156.172 22.5641 156.709 22.3505C157.247 22.137 157.731 21.8162 158.131 21.4094C158.979 20.5035 159.42 19.31 159.356 18.091C159.423 16.863 158.982 15.6595 158.131 14.7442C157.731 14.3367 157.247 14.0154 156.71 13.8013C156.172 13.5872 155.594 13.4852 155.013 13.502V13.502ZM177.017 9.97003C177.86 9.93361 178.702 10.0753 179.482 10.3853C180.263 10.6953 180.964 11.166 181.536 11.7645C182.657 12.9608 183.218 14.6413 183.218 16.8061V25.9778H179.083V17.2618C179.083 16.0086 178.748 15.0354 178.079 14.3423C177.724 13.9899 177.295 13.7148 176.821 13.5355C176.347 13.3562 175.839 13.2768 175.33 13.3026C174.803 13.2803 174.276 13.368 173.787 13.5597C173.298 13.7514 172.857 14.0426 172.495 14.4135C171.786 15.154 171.432 16.2174 171.432 17.6036V25.9778H167.27V10.1979H171.435V13.358C171.844 12.3223 172.597 11.4461 173.576 10.8657C174.612 10.257 175.806 9.94621 177.019 9.97003H177.017Z" fill="white"/>
</g>
<defs>
<clipPath id="clip0_61490_3">
<rect width="213" height="48" fill="white"/>
</clipPath>
</defs>
</svg>
