<svg width="213" height="48" viewBox="0 0 213 48" fill="none" xmlns="http://www.w3.org/2000/svg">
<path d="M187.311 24.2036C186.217 23.3555 185.01 22.7524 183.869 21.9985C183.128 21.5085 182.339 21.0749 181.696 20.453C180.602 19.3975 180.827 17.3244 181.97 16.4196C183.611 15.138 186.329 15.8541 186.619 18.474C186.619 18.5305 186.667 18.5683 186.716 18.5683H189.194C189.258 18.5683 189.306 18.5117 189.29 18.4364C189.161 16.6269 188.566 15.1191 187.472 14.1579C186.426 13.2344 185.236 12.7443 183.964 12.7443C177.417 12.7443 176.821 20.8676 180.344 23.431C180.747 23.7325 184.205 25.768 185.429 26.6538C186.651 27.5396 187.038 29.1606 186.506 30.4422C186.023 31.6108 184.769 32.4212 183.514 32.327C182.146 32.2327 181.085 31.3658 180.714 30.0087C180.65 29.7638 180.618 29.2925 180.618 29.0852C180.618 29.0287 180.57 28.9721 180.521 28.9721H177.835C177.787 28.9721 177.739 29.0287 177.739 29.0852C177.739 31.3658 178.222 32.6285 179.54 33.7783C180.779 34.8714 182.13 35.3238 183.531 35.3238C187.199 35.3238 189.097 32.8924 189.482 30.3668C189.82 27.8977 189.194 25.6737 187.311 24.2036Z" fill="white"/>
<path d="M70.6577 13.1591H69.4672H68.1641C68.1158 13.1591 68.0836 13.1968 68.0675 13.2345L65.8636 21.7536C65.8314 21.8668 65.7027 21.8668 65.6705 21.7536L63.4664 13.2345C63.4503 13.1779 63.4181 13.1591 63.3698 13.1591H62.0668H60.8763H59.2675C59.2192 13.1591 59.1709 13.2156 59.1709 13.2722V35.0224C59.1709 35.0788 59.2192 35.1354 59.2675 35.1354H61.9541C62.0024 35.1354 62.0507 35.0788 62.0507 35.0224V18.4929C62.0507 18.361 62.2116 18.3422 62.2438 18.4553L64.4638 27.031L64.6247 27.634C64.6408 27.6906 64.673 27.7095 64.7213 27.7095H66.7806C66.8287 27.7095 66.8609 27.6717 66.877 27.634L67.0379 27.031L69.2581 18.4553C69.2903 18.3233 69.4511 18.361 69.4511 18.4929V35.0224C69.4511 35.0788 69.4994 35.1354 69.5476 35.1354H72.2344C72.2825 35.1354 72.3308 35.0788 72.3308 35.0224V13.2722C72.3308 13.2156 72.2825 13.1591 72.2344 13.1591H70.6577Z" fill="white"/>
<path d="M146.174 13.1591C146.125 13.1591 146.093 13.1968 146.077 13.2345L143.874 21.7536C143.842 21.8668 143.713 21.8668 143.681 21.7536L141.477 13.2345C141.46 13.1779 141.428 13.1591 141.38 13.1591H137.293C137.245 13.1591 137.197 13.2156 137.197 13.2722V35.0224C137.197 35.0788 137.245 35.1354 137.293 35.1354H139.981C140.029 35.1354 140.077 35.0788 140.077 35.0224V18.4929C140.077 18.361 140.238 18.3422 140.27 18.4553L142.49 27.031L142.651 27.634C142.667 27.6906 142.699 27.7095 142.747 27.7095H144.807C144.855 27.7095 144.887 27.6717 144.903 27.634L145.064 27.031L147.285 18.4553C147.317 18.3233 147.478 18.361 147.478 18.4929V35.0224C147.478 35.0788 147.526 35.1354 147.574 35.1354H150.26C150.309 35.1354 150.357 35.0788 150.357 35.0224V13.2722C150.357 13.2156 150.309 13.1591 150.26 13.1591H146.174Z" fill="white"/>
<path d="M111.521 13.1591H106.517H103.831H98.8274C98.7791 13.1591 98.7308 13.2156 98.7308 13.2722V15.9862C98.7308 16.0428 98.7791 16.0993 98.8274 16.0993H103.734V35.0224C103.734 35.0788 103.782 35.1354 103.831 35.1354H106.517C106.566 35.1354 106.614 35.0788 106.614 35.0224V16.0993H111.521C111.569 16.0993 111.617 16.0428 111.617 15.9862V13.2722C111.617 13.2156 111.585 13.1591 111.521 13.1591Z" fill="white"/>
<path d="M127.368 35.1351H129.812C129.877 35.1351 129.925 35.0598 129.909 34.9844L124.858 13.1588C124.842 13.1023 124.809 13.0834 124.761 13.0834H123.828H122.187H121.254C121.206 13.0834 121.174 13.1211 121.157 13.1588L116.106 34.9844C116.09 35.0598 116.138 35.1351 116.202 35.1351H118.648C118.696 35.1351 118.728 35.0974 118.744 35.0598L120.208 28.7081C120.224 28.6516 120.257 28.6327 120.305 28.6327H125.711C125.759 28.6327 125.791 28.6704 125.807 28.7081L127.271 35.0598C127.287 35.0974 127.336 35.1351 127.368 35.1351ZM120.948 25.5229L122.911 17.0225C122.943 16.9095 123.072 16.9095 123.104 17.0225L125.067 25.5229C125.083 25.5982 125.035 25.6736 124.97 25.6736H121.045C120.981 25.6736 120.932 25.5982 120.948 25.5229Z" fill="white"/>
<path d="M169.067 35.1351H171.512C171.576 35.1351 171.625 35.0598 171.609 34.9844L166.557 13.1588C166.541 13.1023 166.509 13.0834 166.461 13.0834H165.528H163.887H162.954C162.905 13.0834 162.873 13.1211 162.857 13.1588L157.806 34.9844C157.79 35.0598 157.838 35.1351 157.902 35.1351H160.348C160.396 35.1351 160.429 35.0974 160.445 35.0598L161.908 28.7081C161.925 28.6516 161.957 28.6327 162.005 28.6327H167.411C167.459 28.6327 167.491 28.6704 167.507 28.7081L168.971 35.0598C168.987 35.0974 169.019 35.1351 169.067 35.1351ZM162.648 25.5229L164.611 17.0225C164.643 16.9095 164.772 16.9095 164.804 17.0225L166.767 25.5229C166.783 25.5982 166.734 25.6736 166.67 25.6736H162.744C162.68 25.6736 162.632 25.5982 162.648 25.5229Z" fill="white"/>
<path d="M83.2385 31.9124V25.165C83.2385 25.1085 83.2868 25.0519 83.3351 25.0519H90.4941C90.5424 25.0519 90.5907 24.9954 90.5907 24.9388V22.2247C90.5907 22.1683 90.5424 22.1117 90.4941 22.1117H83.3351C83.2868 22.1117 83.2385 22.0551 83.2385 21.9986V16.2313C83.2385 16.1747 83.2868 16.1181 83.3351 16.1181H91.4755C91.5238 16.1181 91.5721 16.0615 91.5721 16.0051V13.291C91.5721 13.2345 91.5238 13.1779 91.4755 13.1779H83.2385H80.4554C80.4071 13.1779 80.3588 13.2345 80.3588 13.291V16.1181V22.1305V25.0708V32.0444V35.0223C80.3588 35.0788 80.4071 35.1354 80.4554 35.1354H83.2385H91.8133C91.8616 35.1354 91.9099 35.0788 91.9099 35.0223V32.1575C91.9099 32.101 91.8616 32.0444 91.8133 32.0444H83.319C83.2707 32.0256 83.2385 31.9878 83.2385 31.9124Z" fill="white"/>
<path d="M211.861 34.9469L202.562 23.6948C202.53 23.6572 202.53 23.5818 202.562 23.5442L210.928 13.3664C210.993 13.291 210.944 13.1779 210.864 13.1779H207.437C207.405 13.1779 207.389 13.1968 207.373 13.2156L200.278 21.8479C200.214 21.9232 200.117 21.8666 200.117 21.7724V13.291C200.117 13.2345 200.069 13.1779 200.021 13.1779H197.333C197.285 13.1779 197.237 13.2345 197.237 13.291V35.0412C197.237 35.0978 197.285 35.1543 197.333 35.1543H200.021C200.069 35.1543 200.117 35.0978 200.117 35.0412V25.4666C200.117 25.3724 200.23 25.3158 200.278 25.3911L208.321 35.1165C208.338 35.1354 208.37 35.1543 208.386 35.1543H211.812C211.877 35.1354 211.925 35.0035 211.861 34.9469Z" fill="white"/>
<path d="M40.8146 1.45456L24.5497 15.5903L27.5743 7.25963L40.8146 1.45456Z" fill="#E17726" stroke="#E17726" stroke-width="0.25" stroke-linecap="round" stroke-linejoin="round"/>
<path d="M3.29761 1.45456L19.4177 15.7222L16.538 7.25962L3.29761 1.45456Z" fill="#E27625" stroke="#E27625" stroke-width="0.25" stroke-linecap="round" stroke-linejoin="round"/>
<path d="M34.9582 34.2304L30.6306 41.9956L39.8972 44.9924L42.5518 34.4002L34.9582 34.2304Z" fill="#E27625" stroke="#E27625" stroke-width="0.25" stroke-linecap="round" stroke-linejoin="round"/>
<path d="M1.57611 34.4002L4.21451 44.9924L13.4651 41.9956L9.1535 34.2304L1.57611 34.4002Z" fill="#E27625" stroke="#E27625" stroke-width="0.25" stroke-linecap="round" stroke-linejoin="round"/>
<path d="M12.9662 21.1126L10.3922 25.6737L19.5623 26.1638L19.2567 14.5725L12.9662 21.1126Z" fill="#E27625" stroke="#E27625" stroke-width="0.25" stroke-linecap="round" stroke-linejoin="round"/>
<path d="M31.1454 21.1127L24.7587 14.4407L24.5495 26.1639L33.7195 25.6739L31.1454 21.1127Z" fill="#E27625" stroke="#E27625" stroke-width="0.25" stroke-linecap="round" stroke-linejoin="round"/>
<path d="M13.4652 41.9956L19.0155 38.8481L14.2375 34.4755L13.4652 41.9956Z" fill="#E27625" stroke="#E27625" stroke-width="0.25" stroke-linecap="round" stroke-linejoin="round"/>
<path d="M25.0967 38.8481L30.6309 41.9956L29.8748 34.4755L25.0967 38.8481Z" fill="#E27625" stroke="#E27625" stroke-width="0.25" stroke-linecap="round" stroke-linejoin="round"/>
<path d="M30.6309 41.9959L25.0967 38.8484L25.5471 43.0703L25.4988 44.8608L30.6309 41.9959Z" fill="#D5BFB2" stroke="#D5BFB2" stroke-width="0.25" stroke-linecap="round" stroke-linejoin="round"/>
<path d="M13.4652 41.9959L18.6134 44.8608L18.5812 43.0703L19.0155 38.8484L13.4652 41.9959Z" fill="#D5BFB2" stroke="#D5BFB2" stroke-width="0.25" stroke-linecap="round" stroke-linejoin="round"/>
<path d="M18.7097 31.6861L14.1085 30.103L17.3583 28.3501L18.7097 31.6861Z" fill="#233447" stroke="#233447" stroke-width="0.25" stroke-linecap="round" stroke-linejoin="round"/>
<path d="M25.4023 31.6861L26.7538 28.3501L30.0196 30.103L25.4023 31.6861Z" fill="#233447" stroke="#233447" stroke-width="0.25" stroke-linecap="round" stroke-linejoin="round"/>
<path d="M13.4651 41.9956L14.2695 34.2304L9.15356 34.4002L13.4651 41.9956Z" fill="#CC6228" stroke="#CC6228" stroke-width="0.25" stroke-linecap="round" stroke-linejoin="round"/>
<path d="M29.8424 34.2304L30.6308 41.9956L34.9584 34.4002L29.8424 34.2304Z" fill="#CC6228" stroke="#CC6228" stroke-width="0.25" stroke-linecap="round" stroke-linejoin="round"/>
<path d="M33.7195 25.6736L24.5495 26.1636L25.4021 31.6861L26.7536 28.35L30.0194 30.1028L33.7195 25.6736Z" fill="#CC6228" stroke="#CC6228" stroke-width="0.25" stroke-linecap="round" stroke-linejoin="round"/>
<path d="M14.1085 30.1028L17.3582 28.35L18.7097 31.6861L19.5623 26.1636L10.3922 25.6736L14.1085 30.1028Z" fill="#CC6228" stroke="#CC6228" stroke-width="0.25" stroke-linecap="round" stroke-linejoin="round"/>
<path d="M10.3925 25.6736L14.2376 34.4755L14.1088 30.1029L10.3925 25.6736Z" fill="#E27525" stroke="#E27525" stroke-width="0.25" stroke-linecap="round" stroke-linejoin="round"/>
<path d="M30.0196 30.1029L29.8749 34.4755L33.7199 25.6736L30.0196 30.1029Z" fill="#E27525" stroke="#E27525" stroke-width="0.25" stroke-linecap="round" stroke-linejoin="round"/>
<path d="M19.5628 26.1636L18.7101 31.6861L19.788 38.2073L20.0293 29.6128L19.5628 26.1636Z" fill="#E27525" stroke="#E27525" stroke-width="0.25" stroke-linecap="round" stroke-linejoin="round"/>
<path d="M24.5498 26.1636L24.0992 29.594L24.3245 38.2073L25.4024 31.6861L24.5498 26.1636Z" fill="#E27525" stroke="#E27525" stroke-width="0.25" stroke-linecap="round" stroke-linejoin="round"/>
<path d="M25.4023 31.6862L24.3245 38.2074L25.0967 38.8483L29.8748 34.4756L30.0196 30.103L25.4023 31.6862Z" fill="#F5841F" stroke="#F5841F" stroke-width="0.25" stroke-linecap="round" stroke-linejoin="round"/>
<path d="M14.1085 30.103L14.2373 34.4756L19.0153 38.8483L19.7876 38.2074L18.7097 31.6862L14.1085 30.103Z" fill="#F5841F" stroke="#F5841F" stroke-width="0.25" stroke-linecap="round" stroke-linejoin="round"/>
<path d="M25.499 44.8607L25.5471 43.0701L25.1289 42.6554H18.9834L18.5812 43.0701L18.6134 44.8607L13.4652 41.9958L15.267 43.7298L18.919 46.6889H25.1771L28.8452 43.7298L30.6309 41.9958L25.499 44.8607Z" fill="#C0AC9D" stroke="#C0AC9D" stroke-width="0.25" stroke-linecap="round" stroke-linejoin="round"/>
<path d="M25.0966 38.8481L24.3244 38.2074H19.7876L19.0155 38.8481L18.5811 43.0701L18.9833 42.6554H25.1288L25.5471 43.0701L25.0966 38.8481Z" fill="#161616" stroke="#161616" stroke-width="0.25" stroke-linecap="round" stroke-linejoin="round"/>
<path d="M41.5063 16.5138L42.8738 8.71089L40.8145 1.45456L25.0967 15.1191L31.1457 21.1126L39.6884 24.034L41.5707 21.4519L40.7503 20.7545L42.0533 19.3599L41.0559 18.4551L42.359 17.2866L41.5063 16.5138Z" fill="#763E1A" stroke="#763E1A" stroke-width="0.25" stroke-linecap="round" stroke-linejoin="round"/>
<path d="M1.23834 8.71089L2.6219 16.5138L1.73707 17.2866L3.05627 18.4551L2.05883 19.3599L3.36194 20.7545L2.54146 21.4519L4.42374 24.034L12.9665 21.1126L19.0154 15.1191L3.29759 1.45456L1.23834 8.71089Z" fill="#763E1A" stroke="#763E1A" stroke-width="0.25" stroke-linecap="round" stroke-linejoin="round"/>
<path d="M39.6885 24.0339L31.1458 21.1126L33.7199 25.6737L29.8749 34.4755L34.9586 34.4001H42.5521L39.6885 24.0339Z" fill="#F5841F" stroke="#F5841F" stroke-width="0.25" stroke-linecap="round" stroke-linejoin="round"/>
<path d="M12.9663 21.1126L4.42366 24.0339L1.57611 34.4001H9.1535L14.2372 34.4755L10.3923 25.6737L12.9663 21.1126Z" fill="#F5841F" stroke="#F5841F" stroke-width="0.25" stroke-linecap="round" stroke-linejoin="round"/>
<path d="M24.5496 26.1638L25.0966 15.119L27.5741 7.25958H16.5378L19.0153 15.119L19.5623 26.1638L19.7715 29.6317L19.7876 38.2074H24.3244L24.3405 29.6317L24.5496 26.1638Z" fill="#F5841F" stroke="#F5841F" stroke-width="0.25" stroke-linecap="round" stroke-linejoin="round"/>
</svg>
